{
    "asset": {
        "copyright": "(C)2022 Matteo",
        "generator": "maya2glTF main fbbc95e5dc4d",
        "version": "2.0"
    },
    "scenes": [
        {
            "nodes": [
                2,
                1,
                0
            ]
        }
    ],
    "scene": 0,
    "nodes": [
        {
            "name": "pSphere1",
            "mesh": 0,
            "translation": [
                -4.869760036468506,
                0.0,
                0.0
            ]
        },
        {
            "name": "pCylinder1",
            "mesh": 1,
            "translation": [
                0.0,
                0.0,
                -3.5623719692230226
            ]
        },
        {
            "name": "pCube1",
            "mesh": 2
        }
    ],
    "meshes": [
        {
            "name": "pSphereShape1",
            "extras": {
                "targetNames": []
            },
            "primitives": [
                {
                    "attributes": {
                        "NORMAL": 1,
                        "POSITION": 2,
                        "TANGENT": 3,
                        "TEXCOORD_0": 4
                    },
                    "indices": 0,
                    "mode": 4,
                    "material": 0
                }
            ]
        },
        {
            "name": "pCylinderShape1",
            "extras": {
                "targetNames": []
            },
            "primitives": [
                {
                    "attributes": {
                        "NORMAL": 6,
                        "POSITION": 7,
                        "TANGENT": 8,
                        "TEXCOORD_0": 9
                    },
                    "indices": 5,
                    "mode": 4,
                    "material": 1
                }
            ]
        },
        {
            "name": "pCubeShape1",
            "extras": {
                "targetNames": []
            },
            "primitives": [
                {
                    "attributes": {
                        "NORMAL": 11,
                        "POSITION": 12,
                        "TANGENT": 13,
                        "TEXCOORD_0": 14
                    },
                    "indices": 10,
                    "mode": 4,
                    "material": 1
                }
            ]
        }
    ],
    "materials": [
        {
            "name": "lambert2",
            "pbrMetallicRoughness": {
                "baseColorFactor": [
                    0.0,
                    0.800000011920929,
                    0.800000011920929,
                    1.0
                ],
                "metallicFactor": 0.0,
                "roughnessFactor": 1.0
            }
        },
        {
            "name": "lambert1",
            "pbrMetallicRoughness": {
                "baseColorFactor": [
                    0.4000000059604645,
                    0.4000000059604645,
                    0.4000000059604645,
                    1.0
                ],
                "metallicFactor": 0.0,
                "roughnessFactor": 1.0
            }
        }
    ],
    "animations": [
        {
            "name": "clip",
            "channels": [
                {
                    "sampler": 0,
                    "target": {
                        "node": 0,
                        "path": "translation"
                    }
                }
            ],
            "samplers": [
                {
                    "input": 15,
                    "interpolation": "LINEAR",
                    "output": 16
                }
            ]
        }
    ],
    "accessors": [
        {
            "name": "pSphereShape1#0/indices",
            "bufferView": 0,
            "byteOffset": 0,
            "componentType": 5123,
            "count": 2280,
            "max": [
                438
            ],
            "min": [
                0
            ],
            "type": "SCALAR"
        },
        {
            "name": "pSphereShape1#0/vertices/NORMAL",
            "bufferView": 1,
            "byteOffset": 0,
            "componentType": 5126,
            "count": 439,
            "max": [
                1.0,
                1.0,
                1.0
            ],
            "min": [
                -1.0,
                -1.0,
                -1.0
            ],
            "type": "VEC3"
        },
        {
            "name": "pSphereShape1#0/vertices/POSITION",
            "bufferView": 1,
            "byteOffset": 5268,
            "componentType": 5126,
            "count": 439,
            "max": [
                1.0,
                1.0,
                1.0000001192092896
            ],
            "min": [
                -1.000000238418579,
                -1.0,
                -1.0000004768371585
            ],
            "type": "VEC3"
        },
        {
            "name": "pSphereShape1#0/vertices/TANGENT",
            "bufferView": 2,
            "byteOffset": 0,
            "componentType": 5126,
            "count": 439,
            "max": [
                1.0,
                0.07869059592485428,
                1.0,
                1.0
            ],
            "min": [
                -1.0,
                -0.07869064807891846,
                -1.0,
                1.0
            ],
            "type": "VEC4"
        },
        {
            "name": "pSphereShape1#0/vertices/TEXCOORD_0",
            "bufferView": 3,
            "byteOffset": 0,
            "componentType": 5126,
            "count": 439,
            "max": [
                1.0000001192092896,
                1.0
            ],
            "min": [
                0.0,
                0.0
            ],
            "type": "VEC2"
        },
        {
            "name": "pCylinderShape1#0/indices",
            "bufferView": 0,
            "byteOffset": 4560,
            "componentType": 5123,
            "count": 240,
            "max": [
                83
            ],
            "min": [
                0
            ],
            "type": "SCALAR"
        },
        {
            "name": "pCylinderShape1#0/vertices/NORMAL",
            "bufferView": 1,
            "byteOffset": 10536,
            "componentType": 5126,
            "count": 84,
            "max": [
                1.0,
                1.0,
                1.0
            ],
            "min": [
                -1.0,
                -1.0,
                -1.0
            ],
            "type": "VEC3"
        },
        {
            "name": "pCylinderShape1#0/vertices/POSITION",
            "bufferView": 1,
            "byteOffset": 11544,
            "componentType": 5126,
            "count": 84,
            "max": [
                1.0,
                1.0,
                1.0000001192092896
            ],
            "min": [
                -1.000000238418579,
                -1.0,
                -1.0000004768371585
            ],
            "type": "VEC3"
        },
        {
            "name": "pCylinderShape1#0/vertices/TANGENT",
            "bufferView": 2,
            "byteOffset": 7024,
            "componentType": 5126,
            "count": 84,
            "max": [
                1.0,
                0.0,
                1.0,
                1.0
            ],
            "min": [
                -1.0,
                0.0,
                -1.0,
                1.0
            ],
            "type": "VEC4"
        },
        {
            "name": "pCylinderShape1#0/vertices/TEXCOORD_0",
            "bufferView": 3,
            "byteOffset": 3512,
            "componentType": 5126,
            "count": 84,
            "max": [
                0.65625,
                1.0000001192092896
            ],
            "min": [
                0.3437499701976776,
                0.0
            ],
            "type": "VEC2"
        },
        {
            "name": "pCubeShape1#0/indices",
            "bufferView": 0,
            "byteOffset": 5040,
            "componentType": 5123,
            "count": 36,
            "max": [
                23
            ],
            "min": [
                0
            ],
            "type": "SCALAR"
        },
        {
            "name": "pCubeShape1#0/vertices/NORMAL",
            "bufferView": 1,
            "byteOffset": 12552,
            "componentType": 5126,
            "count": 24,
            "max": [
                1.0,
                1.0,
                1.0
            ],
            "min": [
                -1.0,
                -1.0,
                -1.0
            ],
            "type": "VEC3"
        },
        {
            "name": "pCubeShape1#0/vertices/POSITION",
            "bufferView": 1,
            "byteOffset": 12840,
            "componentType": 5126,
            "count": 24,
            "max": [
                0.5,
                0.5,
                0.5
            ],
            "min": [
                -0.5,
                -0.5,
                -0.5
            ],
            "type": "VEC3"
        },
        {
            "name": "pCubeShape1#0/vertices/TANGENT",
            "bufferView": 2,
            "byteOffset": 8368,
            "componentType": 5126,
            "count": 24,
            "max": [
                1.0,
                0.0,
                1.0,
                1.0
            ],
            "min": [
                0.0,
                0.0,
                -1.0,
                1.0
            ],
            "type": "VEC4"
        },
        {
            "name": "pCubeShape1#0/vertices/TEXCOORD_0",
            "bufferView": 3,
            "byteOffset": 4184,
            "componentType": 5126,
            "count": 24,
            "max": [
                0.875,
                1.0
            ],
            "min": [
                0.125,
                0.0
            ],
            "type": "VEC2"
        },
        {
            "name": "clip/anim/frames",
            "bufferView": 4,
            "byteOffset": 0,
            "componentType": 5126,
            "count": 25,
            "max": [
                1.0
            ],
            "min": [
                0.0
            ],
            "type": "SCALAR"
        },
        {
            "name": "pSphere1/anim/clip/T",
            "bufferView": 5,
            "byteOffset": 0,
            "componentType": 5126,
            "count": 25,
            "max": [
                -4.869760036468506,
                0.0,
                0.0
            ],
            "min": [
                -4.869760036468506,
                0.0,
                -7.826487541198731
            ],
            "type": "VEC3"
        }
    ],
    "bufferViews": [
        {
            "name": "cc/data/indices-2",
            "buffer": 0,
            "byteOffset": 26656,
            "byteLength": 5112,
            "target": 34963
        },
        {
            "name": "cc/data/vertices-12",
            "buffer": 0,
            "byteOffset": 9052,
            "byteLength": 13128,
            "byteStride": 12,
            "target": 34962
        },
        {
            "name": "cc/data/vertices-16",
            "buffer": 0,
            "byteOffset": 0,
            "byteLength": 8752,
            "byteStride": 16,
            "target": 34962
        },
        {
            "name": "cc/data/vertices-8",
            "buffer": 0,
            "byteOffset": 22180,
            "byteLength": 4376,
            "byteStride": 8,
            "target": 34962
        },
        {
            "name": "cc/data/generic-4",
            "buffer": 0,
            "byteOffset": 26556,
            "byteLength": 100
        },
        {
            "name": "cc/data/generic-12",
            "buffer": 0,
            "byteOffset": 8752,
            "byteLength": 300
        }
    ],
    "buffers": [
        {
            "name": "cc/data",
            "byteLength": 31768,
            "uri": "cc0.bin"
        }
    ]
}
